<svg width="164" height="120" viewBox="0 0 164 120" xmlns="http://www.w3.org/2000/svg">

	<title>leia</title>

	<g class="character leia" fill="none" fill-rule="evenodd">
		<circle class="main-head highlight" fill="#FBCEA3" cx="82.5" cy="60.5" r="59.5"/>
		<path class="bangs highlight" d="M65.24 3.38C79.054-.01 83 1.063 83 1.063s1.218 54.58-59.817 56.84C22.006 26.153 47.486 7.87 65.24 3.38zm73.967 38.414c3.807 11.102 3.087 19.36 3.087 19.36S85.26 61.954 83 .92c33.26.874 50.648 24.66 56.207 40.874z" fill="#694A30"/>
		<path class="buns highlight" d="M23.28 58.108c.082-16.954 5.648-22.066 5.648-22.066s-10.91-1.426-19.05 5.112c-8.143 6.54-9.56 15.75-9.56 16.954 0 1.204-1.205 10.18 7.31 19.763 8.515 9.588 21.3 8.67 21.3 8.67S23.2 75.06 23.28 58.107zm117.697 5.347c-.067 14.074-4.833 22.784-4.833 22.784s10.096.705 18.238-5.834c8.142-6.538 9.56-15.75 9.56-16.953 0-1.204 1.203-10.18-7.31-19.764-8.516-9.584-21.302-8.666-21.302-8.666s5.727 11.476 5.647 28.43z" fill="#694A30"/>
	</g>
</svg>