<?xml version="1.0" encoding="utf-8"?>
<!-- Generator: Adobe Illustrator 19.0.0, SVG Export Plug-In . SVG Version: 6.00 Build 0)  -->
<svg version="1.1" id="Layer_1" xmlns="http://www.w3.org/2000/svg" xmlns:xlink="http://www.w3.org/1999/xlink" x="0px" y="0px"
	 viewBox="0 0 361 24.7" style="enable-background:new 0 0 361 24.7;" xml:space="preserve">
<style type="text/css">
	.st0{fill:#FFF492;}
</style>
<g id="XMLID_20_">
	<g id="XMLID_51_">
		<path id="XMLID_17_" class="st0" d="M29.1,7.5h-7.3c-2.7-0.1-3.1,0.7-1.2,2.3c3.5,3,5.1,6,5.1,8.8c-0.1,2.9-1.8,4.6-5.1,5.1H0.5
			v-6.9h12.7c3,0.1,3.4-0.8,1.2-2.5C10.7,10.9,9.1,7.8,9.6,5c0.6-2.9,2.3-4.3,5.2-4.3h14.2V7.5z"/>
		<path id="XMLID_109_" d="M0.5,24.2H0v-7.9h13.2c1.8,0.1,2.1-0.3,2.1-0.3l0,0c0,0,0-0.4-1.3-1.4c-3.9-3.5-5.5-6.9-4.9-9.9
			c0.6-3.1,2.5-4.7,5.7-4.7h14.7V8h-7.8c-1.6,0-1.9,0.2-1.9,0.2c0,0,0,0.3,1,1.1c3.6,3.1,5.3,6.2,5.3,9.2c-0.1,3.1-1.9,5-5.5,5.6
			L0.5,24.2z M1,23.2h19.6c3-0.5,4.5-2,4.6-4.6c0.1-2.7-1.6-5.5-4.9-8.4c-0.8-0.6-1.6-1.5-1.3-2.3C19.2,7.3,20.1,7,21.9,7h6.7V1.2
			H14.9c-2.7,0-4.2,1.3-4.7,3.9c-0.5,2.7,1,5.7,4.6,8.9c1.3,1,1.8,1.8,1.5,2.5c-0.3,0.7-1.2,1-3,0.9H1V23.2z"/>
	</g>
	<g id="XMLID_49_">
		<path id="XMLID_16_" class="st0" d="M27.4,23.7V0.7h19.8v6.9H35v2.7h7.9v4H35v2.7h14.2v6.9H27.4z"/>
		<path id="XMLID_105_" d="M49.7,24.2H26.9V0.2h20.8V8H35.5v1.7h7.9v5h-7.9v1.7h14.2V24.2z M27.9,23.2h20.7v-5.9H34.5v-3.7h7.9v-3
			h-7.9V7h12.3V1.2H27.9V23.2z"/>
	</g>
	<g id="XMLID_47_">
		<path id="XMLID_15_" class="st0" d="M49.2,23.7V0.7h7.5v16.2h12.5v6.9H49.2z"/>
		<path id="XMLID_101_" d="M69.7,24.2h-21V0.2h8.5v16.2h12.5V24.2z M49.7,23.2h19v-5.9H56.2V1.2h-6.5V23.2z"/>
	</g>
	<g id="XMLID_45_">
		<path id="XMLID_14_" class="st0" d="M70.1,23.7V0.7h19.8v6.9H77.6v2.7h7.9v4h-7.9v2.7h14.2v6.9H70.1z"/>
		<path id="XMLID_97_" d="M92.3,24.2H69.6V0.2h20.8V8H78.1v1.7h7.9v5h-7.9v1.7h14.2V24.2z M70.6,23.2h20.7v-5.9H77.1v-3.7h7.9v-3
			h-7.9V7h12.3V1.2H70.6V23.2z"/>
	</g>
	<g id="XMLID_43_">
		<path id="XMLID_13_" class="st0" d="M107.4,16.9h7.2v6.9h-10.2c-2.5,0-4.8-0.4-6.8-1.3c-2-0.9-3.6-2.2-4.8-4
			c-1.2-1.8-1.7-4-1.7-6.5c0-1.8,0.3-3.4,1-4.8c0.7-1.4,1.7-2.6,2.9-3.5c1.2-0.9,2.7-1.6,4.3-2.1c1.6-0.5,3.3-0.7,5.1-0.7h6.3h3.9
			v6.9h-7.2c-1.6,0-2.8,0-3.6,0.1c-0.8,0.1-1.5,0.3-2.1,0.5c-0.6,0.2-1.1,0.6-1.6,1.2c-0.5,0.6-0.7,1.5-0.8,2.9
			c0.1,1.4,0.3,2.3,0.8,2.9c0.5,0.6,1.1,1,1.8,1.2c0.7,0.2,1.4,0.3,2.2,0.4C104.8,16.8,105.9,16.9,107.4,16.9z"/>
		<path id="XMLID_93_" d="M115.1,24.2h-10.7c-2.6,0-4.9-0.5-7-1.4c-2.1-0.9-3.8-2.3-5-4.2c-1.2-1.9-1.8-4.1-1.8-6.8
			c0-1.9,0.4-3.6,1.1-5.1c0.7-1.5,1.8-2.7,3-3.7c1.3-1,2.8-1.7,4.4-2.2c1.6-0.5,3.4-0.7,5.3-0.7h10.7V8h-7.7c-1.6,0-2.8,0-3.5,0.1
			c-0.7,0.1-1.4,0.2-2,0.5c-0.5,0.2-1,0.5-1.4,1c-0.3,0.3-0.6,1-0.7,2.6c0,1.2,0.3,2.1,0.7,2.6c0.4,0.5,0.9,0.8,1.5,1
			c0.7,0.2,1.4,0.3,2.1,0.4c0.7,0.1,1.8,0.1,3.3,0.1h7.7V24.2z M104.4,1.2c-1.8,0-3.4,0.2-5,0.7c-1.5,0.4-2.9,1.1-4.1,2
			c-1.2,0.9-2.1,2-2.8,3.4c-0.7,1.3-1,2.9-1,4.6c0,2.5,0.6,4.6,1.7,6.3c1.1,1.7,2.6,3,4.6,3.8c1.9,0.9,4.2,1.3,6.6,1.3h9.7v-5.9
			h-6.7c-1.5,0-2.6,0-3.4-0.1c-0.8-0.1-1.5-0.2-2.3-0.4c-0.8-0.2-1.5-0.7-2-1.3c-0.6-0.7-0.9-1.7-0.9-3.2c0.1-1.6,0.4-2.6,0.9-3.3
			c0.5-0.6,1.1-1.1,1.8-1.3c0.6-0.2,1.4-0.4,2.2-0.5c0.8-0.1,2-0.1,3.7-0.1h6.7V1.2H104.4z"/>
	</g>
	<g id="XMLID_41_">
		<path id="XMLID_12_" class="st0" d="M136.6,0.7v6.9h-7.3v16.2h-7.5V7.5h-7.3V0.7H136.6z"/>
		<path id="XMLID_89_" d="M129.8,24.2h-8.5V8h-7.3V0.2h23.1V8h-7.3V24.2z M122.3,23.2h6.5V7h7.3V1.2h-21.1V7h7.3V23.2z"/>
	</g>
	<g id="XMLID_39_">
		<path id="XMLID_10_" class="st0" d="M158.6,0.7l4.8,7.1l4.7-7.1h9.1l-10.1,14.6v8.5h-7.5v-8.5l-5.4-7.7h-4.8V0.7H158.6z"/>
		<path id="XMLID_85_" d="M167.6,24.2h-8.5v-8.8L153.9,8h-5V0.2h10l4.5,6.7l4.4-6.7h10.3l-10.5,15.3V24.2z M160.1,23.2h6.5v-8.1
			l9.6-13.9h-7.9l-5,7.5l-5-7.5h-8.4V7h4.6l5.6,8.1V23.2z"/>
	</g>
	<g id="XMLID_36_">
		<path id="XMLID_9_" class="st0" d="M201.7,12.3c0,2.5-0.5,4.7-1.6,6.5c-1.1,1.8-2.6,3.1-4.6,4c-2,0.9-4.4,1.3-7.1,1.3
			c-2.8,0-5.1-0.4-7.1-1.3c-2-0.9-3.5-2.2-4.5-4c-1-1.8-1.5-3.9-1.5-6.5c0-1.9,0.3-3.6,0.9-5.1c0.6-1.5,1.4-2.7,2.6-3.7
			c1.1-1,2.5-1.8,4.2-2.3c1.6-0.5,3.5-0.8,5.6-0.8c2.8,0,5.1,0.5,7.1,1.4c2,0.9,3.5,2.3,4.6,4C201.2,7.7,201.7,9.8,201.7,12.3z
			 M183.5,12.4c0,1.5,0.3,2.8,1,3.9c0.7,1.1,2,1.6,3.9,1.6c1.5,0,2.6-0.3,3.4-0.9c0.8-0.6,1.2-1.2,1.4-2c0.2-0.7,0.3-1.6,0.4-2.7
			c-0.1-1.5-0.4-2.8-1.1-3.9c-0.6-1.1-2-1.7-4.1-1.7C185.1,6.9,183.5,8.7,183.5,12.4z"/>
		<path id="XMLID_80_" d="M188.4,24.6c-2.8,0-5.3-0.5-7.3-1.4c-2.1-0.9-3.7-2.4-4.7-4.2c-1.1-1.8-1.6-4.1-1.6-6.7
			c0-2,0.3-3.8,0.9-5.3c0.6-1.5,1.5-2.8,2.7-3.9c1.2-1,2.6-1.8,4.3-2.4c1.7-0.5,3.6-0.8,5.7-0.8c2.8,0,5.3,0.5,7.3,1.4
			c2.1,0.9,3.7,2.4,4.8,4.2c1.1,1.8,1.7,4.1,1.7,6.7c0,2.6-0.6,4.9-1.7,6.7c-1.1,1.9-2.7,3.3-4.8,4.2
			C193.7,24.2,191.3,24.6,188.4,24.6z M188.4,1c-2,0-3.8,0.3-5.4,0.8c-1.6,0.5-2.9,1.2-4,2.2c-1.1,0.9-1.9,2.1-2.4,3.5
			c-0.6,1.4-0.8,3-0.8,4.9c0,2.4,0.5,4.5,1.5,6.2c1,1.7,2.4,2.9,4.3,3.8c1.9,0.9,4.2,1.3,6.9,1.3c2.7,0,5-0.4,6.9-1.3
			c1.9-0.8,3.4-2.1,4.4-3.8c1-1.7,1.5-3.8,1.5-6.2c0-2.4-0.5-4.5-1.5-6.2c-1-1.7-2.5-3-4.4-3.8C193.4,1.4,191.1,1,188.4,1z
			 M188.4,18.4c-2.1,0-3.6-0.6-4.4-1.9c-0.7-1.2-1.1-2.6-1.1-4.1c0-5,3-6,5.4-6c2.3,0,3.8,0.6,4.5,1.9c0.7,1.2,1.1,2.6,1.1,4.1
			c-0.1,1.1-0.2,2.1-0.4,2.8c-0.2,0.9-0.7,1.6-1.6,2.2C191.3,18.1,190,18.4,188.4,18.4z M188.4,7.4c-3,0-4.4,1.6-4.4,5
			c0,1.4,0.3,2.6,0.9,3.6c0.6,0.9,1.7,1.4,3.5,1.4c1.4,0,2.4-0.3,3.1-0.8c0.7-0.5,1.1-1.1,1.2-1.7c0.2-0.7,0.3-1.6,0.4-2.6
			c-0.1-1.3-0.4-2.6-1-3.6C191.5,7.8,190.3,7.4,188.4,7.4z"/>
	</g>
	<g id="XMLID_34_">
		<path id="XMLID_7_" class="st0" d="M209.6,0.7v13.6c-0.1,1.6,0.2,2.6,0.9,3.2c0.7,0.6,1.7,0.9,3.1,1c1.1,0,2.1-0.4,2.8-1
			c0.8-0.6,1.1-1.7,1.1-3.2V0.7h7.5v13.5c0,1.9-0.3,3.4-1,4.6c-0.6,1.1-1.4,2.1-2.3,2.9c-0.9,0.8-2.1,1.4-3.5,1.8
			c-1.4,0.4-2.9,0.7-4.6,0.7c-1.4,0-2.9-0.2-4.3-0.6c-1.5-0.4-2.7-0.9-3.8-1.7c-1.1-0.8-1.9-1.8-2.5-3c-0.6-1.2-0.9-2.8-0.9-4.7V0.7
			H209.6z"/>
		<path id="XMLID_75_" d="M213.6,24.7c-1.5,0-3-0.2-4.5-0.6c-1.5-0.4-2.9-1-4-1.8c-1.2-0.8-2.1-1.9-2.7-3.1
			c-0.6-1.3-0.9-2.9-0.9-4.9v-14h8.5v14.1c-0.1,1.4,0.2,2.4,0.7,2.9c0.6,0.5,1.5,0.8,2.8,0.8c1,0,1.8-0.3,2.5-0.9
			c0.6-0.5,0.9-1.5,0.9-2.8V0.2h8.5v14c0,2-0.4,3.6-1,4.8c-0.6,1.2-1.4,2.2-2.4,3c-1,0.8-2.2,1.4-3.6,1.9
			C217,24.4,215.4,24.6,213.6,24.7z M202.5,1.2v13c0,1.9,0.3,3.4,0.8,4.5c0.5,1.1,1.3,2.1,2.4,2.8c1,0.7,2.3,1.3,3.7,1.6
			c1.4,0.3,2.8,0.5,4.2,0.6c1.6,0,3.1-0.3,4.5-0.7c1.3-0.4,2.4-1,3.3-1.7c0.9-0.7,1.6-1.6,2.2-2.7c0.6-1.1,0.9-2.5,0.9-4.4v-13h-6.5
			v13.1c0,1.7-0.4,2.9-1.2,3.6c-0.8,0.7-1.9,1.1-3.1,1.1c-1.5,0-2.7-0.4-3.4-1.1c-0.8-0.7-1.1-1.9-1.1-3.6V1.2H202.5z"/>
	</g>
	<g id="XMLID_31_">
		<path id="XMLID_6_" class="st0" d="M226.1,23.7V0.7h15c1.9,0.2,3.4,0.7,4.6,1.5c1.2,0.8,2.1,1.9,2.6,3.3c0.4,2,0.4,3.6,0.1,4.7
			c-0.4,1.1-1.1,2-2,2.8c-1,0.7-2.3,1.3-4.1,1.8l1.7,2.2h6.9v6.9h-9.1l-7.3-7.6v7.6H226.1z M234.4,6.4v4.2h5.8c0.3,0,0.6-0.1,1-0.3
			c0.4-0.2,0.6-0.8,0.6-1.7c-0.1-0.9-0.3-1.5-0.6-1.7c-0.4-0.3-0.7-0.4-1-0.4H234.4z"/>
		<path id="XMLID_70_" d="M251.3,24.2h-9.8l-6.6-6.9v6.9h-9.3V0.2h15.5c2,0.2,3.6,0.7,4.8,1.6c1.3,0.9,2.2,2,2.8,3.5
			c0.5,2.2,0.5,3.9,0.1,5.1c-0.4,1.2-1.1,2.2-2.2,3c-0.9,0.7-2.1,1.2-3.6,1.7l1.1,1.4h7.2V24.2z M241.9,23.2h8.4v-5.9h-6.6l-2.4-3
			l0.8-0.2c1.7-0.4,3-1,3.9-1.7c0.9-0.7,1.5-1.5,1.8-2.5c0.4-1,0.3-2.5-0.1-4.5c-0.5-1.2-1.3-2.2-2.4-2.9c-1.1-0.8-2.6-1.2-4.3-1.4
			l-14.5,0v22.1h7.3v-8.4L241.9,23.2z M240.2,11.2h-6.3V5.9h6.3c0.4,0,0.8,0.2,1.2,0.5c0.5,0.4,0.8,1.1,0.8,2.1
			c0,1.2-0.3,1.9-0.8,2.2C241.1,11,240.6,11.2,240.2,11.2z M234.9,10.2h5.3c0.2,0,0.5-0.1,0.7-0.3c0.1,0,0.3-0.3,0.3-1.3
			c0-0.7-0.2-1.2-0.4-1.3c-0.4-0.3-0.6-0.3-0.7-0.3h-5.3V10.2z"/>
	</g>
	<g id="XMLID_29_">
		<path id="XMLID_5_" class="st0" d="M279.2,8.6v-8h7.5v23.1h-7.5v-8.3h-6v8.3h-7.5V7.5h-4.8V0.7h12.3v8H279.2z"/>
		<path id="XMLID_65_" d="M287.2,24.2h-8.5v-8.3h-5v8.3h-8.5V8h-4.8V0.2h13.3v8h5v-8h8.5V24.2z M279.7,23.2h6.5V1.2h-6.5v8h-7v-8
			h-11.3V7h4.8v16.2h6.5v-8.3h7V23.2z"/>
	</g>
	<g id="XMLID_27_">
		<path id="XMLID_3_" class="st0" d="M288.3,23.7V0.7h19.8v6.9h-12.3v2.7h7.9v4h-7.9v2.7h14.2v6.9H288.3z"/>
		<path id="XMLID_61_" d="M310.6,24.2h-22.7V0.2h20.8V8h-12.3v1.7h7.9v5h-7.9v1.7h14.2V24.2z M288.8,23.2h20.7v-5.9h-14.2v-3.7h7.9
			v-3h-7.9V7h12.3V1.2h-18.8V23.2z"/>
	</g>
	<g id="XMLID_24_">
		<path id="XMLID_1_" class="st0" d="M310.1,23.7V0.7h15c1.9,0.2,3.4,0.7,4.6,1.5c1.2,0.8,2.1,1.9,2.6,3.3c0.4,2,0.4,3.6,0.1,4.7
			c-0.4,1.1-1.1,2-2,2.8c-1,0.7-2.3,1.3-4.1,1.8l1.7,2.2h6.9v6.9h-9.1l-7.3-7.6v7.6H310.1z M318.4,6.4v4.2h5.8c0.3,0,0.6-0.1,1-0.3
			c0.4-0.2,0.6-0.8,0.6-1.7c-0.1-0.9-0.3-1.5-0.6-1.7c-0.4-0.3-0.7-0.4-1-0.4H318.4z"/>
		<path id="XMLID_56_" d="M335.3,24.2h-9.8l-6.6-6.9v6.9h-9.3V0.2h15.5c2,0.2,3.6,0.7,4.8,1.6c1.3,0.9,2.2,2,2.8,3.5
			c0.5,2.2,0.5,3.9,0.1,5.1c-0.4,1.2-1.1,2.2-2.2,3c-0.9,0.7-2.1,1.2-3.6,1.7l1.1,1.4h7.2V24.2z M325.9,23.2h8.4v-5.9h-6.6l-2.4-3
			l0.8-0.2c1.7-0.4,3-1,3.9-1.7c0.9-0.7,1.5-1.5,1.8-2.5c0.4-1,0.3-2.5-0.1-4.5c-0.5-1.2-1.3-2.2-2.4-2.9c-1.1-0.8-2.6-1.2-4.3-1.4
			l-14.5,0v22.1h7.3v-8.4L325.9,23.2z M324.2,11.2h-6.3V5.9h6.3c0.4,0,0.8,0.2,1.2,0.5c0.5,0.4,0.8,1.1,0.8,2.1
			c0,1.2-0.3,1.9-0.8,2.2C325,11,324.6,11.2,324.2,11.2z M318.9,10.2h5.3c0.2,0,0.5-0.1,0.7-0.3c0.1,0,0.3-0.3,0.3-1.3
			c0-0.7-0.2-1.2-0.4-1.3c-0.4-0.3-0.6-0.3-0.7-0.3h-5.3V10.2z"/>
	</g>
	<g id="XMLID_21_">
		<path id="XMLID_42_" class="st0" d="M360.5,12.3c0,2.5-0.5,4.7-1.6,6.5c-1.1,1.8-2.6,3.1-4.6,4c-2,0.9-4.4,1.3-7.1,1.3
			c-2.8,0-5.1-0.4-7.1-1.3c-2-0.9-3.5-2.2-4.5-4c-1-1.8-1.5-3.9-1.5-6.5c0-1.9,0.3-3.6,0.9-5.1c0.6-1.5,1.4-2.7,2.6-3.7
			c1.1-1,2.5-1.8,4.2-2.3c1.6-0.5,3.5-0.8,5.6-0.8c2.8,0,5.1,0.5,7.1,1.4c2,0.9,3.5,2.3,4.6,4S360.5,9.8,360.5,12.3z M342.2,12.4
			c0,1.5,0.3,2.8,1,3.9c0.7,1.1,2,1.6,3.9,1.6c1.5,0,2.6-0.3,3.4-0.9c0.8-0.6,1.2-1.2,1.4-2c0.2-0.7,0.3-1.6,0.4-2.7
			c-0.1-1.5-0.4-2.8-1.1-3.9c-0.6-1.1-2-1.7-4.1-1.7C343.9,6.9,342.2,8.7,342.2,12.4z"/>
		<path id="XMLID_48_" d="M347.2,24.6c-2.8,0-5.3-0.5-7.3-1.4c-2.1-0.9-3.7-2.4-4.7-4.2c-1.1-1.8-1.6-4.1-1.6-6.7
			c0-2,0.3-3.8,0.9-5.3c0.6-1.5,1.5-2.8,2.7-3.9c1.2-1,2.6-1.8,4.3-2.4c1.7-0.5,3.6-0.8,5.7-0.8c2.8,0,5.3,0.5,7.3,1.4
			c2.1,0.9,3.7,2.4,4.8,4.2c1.1,1.8,1.7,4.1,1.7,6.7c0,2.6-0.6,4.9-1.7,6.7c-1.1,1.9-2.7,3.3-4.8,4.2
			C352.5,24.2,350,24.6,347.2,24.6z M347.2,1c-2,0-3.8,0.3-5.4,0.8c-1.6,0.5-2.9,1.2-4,2.2c-1.1,0.9-1.9,2.1-2.4,3.5
			c-0.6,1.4-0.8,3-0.8,4.9c0,2.4,0.5,4.5,1.5,6.2c1,1.7,2.4,2.9,4.3,3.8c1.9,0.9,4.2,1.3,6.9,1.3c2.7,0,5-0.4,6.9-1.3
			c1.9-0.8,3.4-2.1,4.4-3.8c1-1.7,1.5-3.8,1.5-6.2c0-2.4-0.5-4.5-1.5-6.2c-1-1.7-2.5-3-4.4-3.8C352.2,1.4,349.9,1,347.2,1z
			 M347.1,18.4c-2.1,0-3.6-0.6-4.4-1.9c-0.7-1.2-1.1-2.6-1.1-4.1c0-5,3-6,5.4-6c2.3,0,3.8,0.6,4.5,1.9c0.7,1.2,1.1,2.6,1.1,4.1
			c-0.1,1.1-0.2,2.1-0.4,2.8c-0.2,0.9-0.7,1.6-1.6,2.2C350,18.1,348.8,18.4,347.1,18.4z M347.1,7.4c-3,0-4.4,1.6-4.4,5
			c0,1.4,0.3,2.6,0.9,3.6c0.6,0.9,1.7,1.4,3.5,1.4c1.4,0,2.4-0.3,3.1-0.8c0.7-0.5,1.1-1.1,1.2-1.7c0.2-0.7,0.3-1.6,0.4-2.6
			c-0.1-1.3-0.4-2.6-1-3.6C350.3,7.8,349,7.4,347.1,7.4z"/>
	</g>
</g>
</svg>
