<svg width="217" height="119" viewBox="0 0 217 119" xmlns="http://www.w3.org/2000/svg">

	<title>yoda</title>

	<g class="character yoda" fill="#47936B" fill-rule="evenodd">
		<path class="ears highlight" d="M40.508 31.218c-12.24-4.983-24.538-13.79-28.01-13.79-3.472 0-7.674 1.347-9.288 2.403C1.597 20.89.1 22.925.1 23.288c0 1.21.878 2.033 1.964 2.305 2.312.58 6.575-.37 8.257.545 1.684.914 4.693 4.212 6.47 6.74 2.544 3.617 4.61 9.92 7.67 14.802 3.886 6.2 8.525 10.68 8.525 10.68s5.532 4.722 8.68 6.17c3.263 1.497 10.552 2.662 10.552 2.662l4.78-32.305s-7.978-.205-16.49-3.67zm136.08 0c12.24-4.983 24.54-13.79 28.01-13.79 3.472 0 7.674 1.347 9.287 2.403 1.614 1.06 3.11 3.094 3.11 3.457 0 1.21-.877 2.033-1.963 2.305-2.312.58-6.576-.37-8.258.545-1.682.914-4.69 4.212-6.467 6.74-2.544 3.617-4.612 9.92-7.67 14.802-3.886 6.2-8.525 10.68-8.525 10.68s-5.533 4.722-8.68 6.17c-3.263 1.497-10.552 2.662-10.552 2.662l-4.78-32.305s7.977-.205 16.487-3.67z"/>
		<circle class="main-head highlight" cx="109.669" cy="59.5" r="59.5"/>
	</g>
</svg>